<?xml version="1.0" standalone="no"?>
<!DOCTYPE svg PUBLIC "-//W3C//DTD SVG 20010904//EN"
 "http://www.w3.org/TR/2001/REC-SVG-20010904/DTD/svg10.dtd">
<svg version="1.0" xmlns="http://www.w3.org/2000/svg"
 width="700.000000pt" height="700.000000pt" viewBox="0 0 700.000000 700.000000"
 preserveAspectRatio="xMidYMid meet">
<metadata>
Created by potrace 1.11, written by Peter Selinger 2001-2013
</metadata>
<g transform="translate(0.000000,700.000000) scale(0.100000,-0.100000)"
fill="#000000" stroke="none">
<path d="M6245 6798 c-35 -9 -271 -241 -1933 -1902 -1041 -1040 -1894 -1892
-1896 -1894 -2 -2 -22 6 -45 17 -47 25 -110 27 -155 6 -17 -8 -523 -507 -1124
-1108 l-1092 -1092 0 -83 0 -82 76 -80 c148 -155 365 -365 391 -379 31 -16 97
-16 139 -1 16 6 223 205 481 462 l451 451 39 -40 c131 -135 336 -194 516 -147
l60 15 101 -100 100 -100 -88 -87 c-48 -47 -96 -105 -108 -127 -85 -167 98
-355 269 -277 49 22 411 377 437 429 23 44 27 115 10 166 -12 34 -54 82 -206
234 -140 141 -188 195 -184 208 34 87 34 237 1 335 -29 86 -62 143 -124 210
l-50 54 192 191 192 191 110 22 c247 48 452 145 634 298 118 100 230 231 305
356 l36 59 53 2 c110 3 185 76 194 189 5 60 8 65 36 77 49 20 193 115 283 185
178 138 362 347 474 537 33 55 60 105 60 109 0 4 24 8 53 8 112 0 200 85 201
193 l0 52 89 50 c292 164 591 470 742 758 l28 52 54 1 c72 2 137 42 171 104
21 39 23 54 19 117 l-5 72 36 32 c107 94 269 103 380 22 64 -48 99 -99 118
-173 31 -123 -2 -211 -128 -345 -351 -370 -605 -744 -753 -1105 -51 -125 -116
-348 -131 -450 -3 -19 -7 -46 -10 -60 -13 -80 -18 -162 -17 -297 l1 -153 -29
-31 c-34 -36 -58 -108 -53 -159 12 -123 104 -210 224 -210 233 0 310 318 103
424 -36 18 -36 15 -36 176 -1 356 141 773 392 1155 53 80 214 297 258 347 17
18 54 60 83 93 30 33 82 89 116 125 120 125 155 179 183 289 96 382 -258 726
-640 620 -79 -22 -125 -47 -197 -107 l-52 -44 -112 112 -111 112 305 306 c168
169 314 322 323 340 20 42 21 131 2 169 -33 61 -114 114 -174 112 -15 -1 -46
-6 -68 -11z m-425 -1449 c0 -16 -101 -187 -160 -271 -60 -85 -243 -281 -315
-336 -58 -45 -220 -150 -283 -182 l-63 -33 -125 124 -124 124 412 412 413 413
122 -122 c68 -68 123 -126 123 -129z m-1223 -982 l122 -123 -40 -74 c-167
-307 -372 -516 -683 -695 l-99 -57 -126 126 -126 126 410 410 c225 226 412
410 415 410 3 0 60 -56 127 -123z m-999 -1219 c11 -14 7 -27 -29 -85 -159
-259 -376 -438 -642 -527 -43 -14 -79 -26 -81 -26 -3 0 -7 14 -11 31 -4 19
-34 59 -76 103 l-68 71 335 336 336 336 111 -112 c62 -61 118 -118 125 -127z"/>
</g>
</svg>
