<svg xmlns="http://www.w3.org/2000/svg" width="511pt" height="511pt" viewBox="1 -13 511.999 511"><path fill="#e6e6e6" d="m191.730469 332.78125c-.160157 0-.273438-.003906-.339844-.003906-4.207031-.066406-7.558594-3.53125-7.488281-7.734375.066406-4.199219 3.519531-7.550781 7.714844-7.488281 2.019531.015624 47.1875-.125 72.664062-46.605469 2.019531-3.6875 6.644531-5.039063 10.332031-3.015625 3.6875 2.019531 5.039063 6.644531 3.019531 10.332031-29.136718 53.148437-80.753906 54.515625-85.902343 54.515625zm0 0"/><path fill="#e6e6e6" d="m291.417969 261.761719c-2.804688 0-5.503907-1.554688-6.828125-4.238281-1.863282-3.769532-.320313-8.335938 3.449218-10.199219 24.597657-12.160157 44.84375-32.40625 57.007813-57.007813 1.863281-3.769531 6.425781-5.3125 10.195313-3.449218 3.769531 1.863281 5.316406 6.429687 3.449218 10.195312-13.632812 27.578125-36.328125 50.277344-63.90625 63.910156-1.082031.535156-2.234375.789063-3.367187.789063zm0 0"/><path fill="#e6e6e6" d="m372.335938 180.847656c-2.808594 0-5.503907-1.554687-6.832032-4.242187-1.863281-3.765625-.316406-8.332031 3.449219-10.195313 24.601563-12.160156 44.847656-32.40625 57.007813-57.007812 1.863281-3.765625 6.425781-5.3125 10.199218-3.449219 3.765625 1.863281 5.3125 6.429687 3.449219 10.195313-13.636719 27.578124-36.332031 50.277343-63.910156 63.910156-1.082031.535156-2.234375.789062-3.363281.789062zm0 0"/><path fill="#e6e6e6" d="m430.363281 301.054688c-3.453125 0-6.582031-2.367188-7.402343-5.875-16.773438-71.570313 34.996093-137.019532 67.347656-169.664063 8.644531-8.71875 8.636718-22.847656-.011719-31.496094l-.1875-.191406c-4.207031-4.207031-9.804687-6.523437-15.753906-6.523437-5.953125 0-11.546875 2.316406-15.753907 6.523437l-12.152343 12.15625c-2.972657 2.972656-7.792969 2.972656-10.765625 0s-2.972656-7.792969 0-10.765625l12.152344-12.152344c7.082031-7.085937 16.5-10.984375 26.519531-10.984375s19.433593 3.898438 26.519531 10.984375l.1875.1875c14.558594 14.558594 14.582031 38.324219.058594 52.980469-70.207032 70.84375-69.820313 127.816406-63.339844 155.472656.960938 4.09375-1.582031 8.1875-5.675781 9.148438-.582031.132812-1.167969.199219-1.742188.199219zm0 0"/><path fill="#e6e6e6" d="m372.335938 180.847656c-2.808594 0-5.503907-1.554687-6.832032-4.242187-1.863281-3.765625-.316406-8.332031 3.449219-10.195313 24.601563-12.160156 44.847656-32.40625 57.007813-57.007812 1.863281-3.765625 6.425781-5.3125 10.199218-3.449219 3.765625 1.863281 5.3125 6.429687 3.449219 10.195313-13.636719 27.578124-36.332031 50.277343-63.910156 63.910156-1.082031.535156-2.234375.789062-3.363281.789062zm0 0"/><path fill="#475c70" d="m257.265625 220.003906 34.144531 34.144532c5.652344 5.652343 5.652344 14.808593 0 20.457031-5.648437 5.652343-14.804687 5.652343-20.457031 0l-34.144531-34.144531zm0 0"/><path fill="#475c70" d="m338.179688 139.085938 34.148437 34.148437c5.648437 5.648437 5.648437 14.808594 0 20.457031-5.648437 5.648438-14.808594 5.648438-20.457031 0l-34.148438-34.148437zm0 0"/><path fill="#475c70" d="m419.09375 58.171875 34.148438 34.148437c5.648437 5.648438 5.648437 14.804688 0 20.457032-5.648438 5.648437-14.808594 5.648437-20.457032 0l-34.148437-34.148438zm0 0"/><g fill="#d0cfd5"><path d="m305.765625 239.796875-1.867187-1.867187c-5.042969 3.507812-10.335938 6.664062-15.859376 9.398437-3.769531 1.863281-5.3125 6.425781-3.449218 10.195313 1.324218 2.683593 4.023437 4.242187 6.828125 4.242187 1.132812 0 2.285156-.253906 3.367187-.792969 6.324219-3.125 12.371094-6.746094 18.132813-10.773437-1.683594-3.773438-4.0625-7.3125-7.152344-10.402344zm0 0"/><path d="m386.679688 158.878906-1.863282-1.863281c-5.042968 3.503906-10.335937 6.664063-15.863281 9.394531-3.765625 1.863282-5.3125 6.429688-3.449219 10.195313 1.328125 2.6875 4.023438 4.242187 6.832032 4.242187 1.128906 0 2.28125-.253906 3.367187-.789062 6.320313-3.125 12.371094-6.746094 18.128906-10.777344-1.679687-3.773438-4.058593-7.308594-7.152343-10.402344zm0 0"/><path d="m446.449219 105.980469 12.152343-12.152344c4.1875-4.1875 9.75-6.5 15.671876-6.519531-1.671876-3.417969-3.90625-6.574219-6.675782-9.34375l-4.25-4.25c-5.796875 1.769531-11.105468 4.941406-15.511718 9.347656l-12.152344 12.152344c-2.972656 2.972656-2.972656 7.792968 0 10.765625 2.972656 2.972656 7.792968 2.972656 10.765625 0zm0 0"/><path d="m274.613281 267.929688c-3.6875-2.019532-8.3125-.667969-10.332031 3.019531-3.183594 5.804687-6.675781 10.890625-10.351562 15.339843l2.671874 2.671876c2.773438 2.773437 5.9375 5.015624 9.363282 6.683593 4.144531-5.070312 8.074218-10.828125 11.664062-17.378906 2.023438-3.6875.671875-8.3125-3.015625-10.335937zm0 0"/><path d="m355.242188 186.867188c-3.765626-1.863282-8.332032-.316407-10.195313 3.449218-2.730469 5.527344-5.890625 10.816406-9.398437 15.859375l1.867187 1.867188c3.050781 3.050781 6.570313 5.453125 10.394531 7.164062 4.03125-5.761719 7.65625-11.816406 10.785156-18.144531 1.863282-3.765625.316407-8.332031-3.453124-10.195312zm0 0"/><path d="m436.160156 105.953125c-3.769531-1.863281-8.335937-.316406-10.199218 3.449219-2.730469 5.523437-5.890626 10.816406-9.394532 15.859375l1.867188 1.867187c3.050781 3.050782 6.570312 5.453125 10.390625 7.164063 4.03125-5.761719 7.65625-11.816407 10.785156-18.144531 1.863281-3.769532.316406-8.332032-3.449219-10.195313zm0 0"/></g><path fill="#475c70" d="m257.265625 220.003906 34.144531 34.144532c5.652344 5.652343 5.652344 14.808593 0 20.457031-5.648437 5.652343-14.804687 5.652343-20.457031 0l-34.144531-34.144531zm0 0"/><path fill="#475c70" d="m338.179688 139.085938 34.148437 34.148437c5.648437 5.648437 5.648437 14.808594 0 20.457031-5.648437 5.648438-14.808594 5.648438-20.457031 0l-34.148438-34.148437zm0 0"/><path fill="#475c70" d="m419.09375 58.171875 34.148438 34.148437c5.648437 5.648438 5.648437 14.804688 0 20.457032-5.648438 5.648437-14.808594 5.648437-20.457032 0l-34.148437-34.148438zm0 0"/><path fill="#a6b6c4" d="m452.230469 4.707031-299.503907 299.507813 20.324219 20.324218 299.507813-299.503906c5.613281-5.613281 5.613281-14.714844 0-20.324218-5.613282-5.613282-14.714844-5.617188-20.328125-.003907zm0 0"/><path fill="#879caf" d="m152.722656 304.214844 46.109375-46.113282 20.328125 20.328126-46.113281 46.109374zm0 0"/><path fill="#de8957" d="m159.617188 279.632812-155.953126 155.957032c-4.886718 4.882812-4.886718 12.804687 0 17.6875l27.84375 27.84375c4.882813 4.886718 12.804688 4.886718 17.6875 0l155.957032-155.957032c4.882812-4.882812 4.882812-12.800781 0-17.6875l-27.84375-27.84375c-4.886719-4.882812-12.804688-4.882812-17.691406 0zm0 0"/><path fill="#c76d33" d="m205.148438 307.476562-27.84375-27.84375 7.546874 7.546876c4.886719 4.886718 4.886719 12.804687 0 17.6875l-155.957031 155.957031c-4.882812 4.882812-12.804687 4.882812-17.6875 0l-7.542969-7.546875 27.84375 27.84375c4.882813 4.886718 12.804688 4.886718 17.6875 0l155.953126-155.957032c4.886718-4.882812 4.886718-12.800781 0-17.6875zm0 0"/><path fill="#475c70" d="m173.042969 363.675781c-15.632813-15.632812-40.984375-15.632812-56.617188 0-15.632812 15.636719-15.632812 40.984375 0 56.617188 15.632813 15.632812 40.984375 15.632812 56.617188 0 15.632812-15.632813 15.632812-40.980469 0-56.617188zm0 0"/><path fill="#a6b6c4" d="m137.917969 385.167969c-6.589844 6.589843-6.589844 17.277343 0 23.867187l35.214843 35.214844 22.710938-1.160156 1.15625-22.707032-35.214844-35.214843c-6.589844-6.59375-17.277344-6.59375-23.867187 0zm0 0"/><path fill="#475c70" d="m161.71875 455.664062c-5.953125 5.949219-5.953125 15.597657 0 21.550782 5.949219 5.949218 15.597656 5.949218 21.550781 0l24.429688-24.429688c5.992187-5.996094 5.992187-15.714844 0-21.707031l-10.699219-10.695313zm0 0"/><path fill="#fd5f7e" d="m442.042969 281.765625c-6.449219-6.449219-16.90625-6.449219-23.355469 0s-6.449219 16.90625 0 23.355469c6.449219 6.449218 16.90625 6.449218 23.355469 0 6.449219-6.449219 6.449219-16.90625 0-23.355469zm0 0"/></svg>